<?xml version='1.0' encoding='utf-8'?>
<svg xmlns="http://www.w3.org/2000/svg" version="1.1" id="Layer_1" x="0px" y="0px" viewBox="0 0 500 500" style="enable-background:new 0 0 500 500;"> <style type="text/css"> .st0{fill:#DBE0E1;} .st1{fill:#7D8588;} .st2{fill:none;stroke:#BFBFBF;stroke-miterlimit:10;} .st3{fill:none;stroke:#BFBFBF;stroke-linecap:round;stroke-linejoin:round;stroke-miterlimit:10;} .st4{fill:#DBE0E1;stroke:#BFBFBF;stroke-miterlimit:10;} </style> <g> <path class="st0" d="M312,163.9c-19.4-11.6-39-13.1-40.3-13.2c-49.8,0-78.9,33.8-85.7,42.8c1.5,1.2,3,2.5,4.3,4 c14.3,15.2,13.2,37.2,13.2,38.1c-0.1,1.6-1.4,2.7-3,2.7c-1.6-0.1-2.8-1.4-2.7-3c0-0.2,1-20.5-11.7-34c-7.5-8-18.4-12-32.4-12.1 c-0.1,0-0.2,0-0.3,0c-45.3,0-45.4,37-45.5,49.1l0,3.3l-2.3,0.4c-1.7,0.3-41.3,8.8-41.3,67.8c0,58,67.6,64.2,70.5,64.5h219.6 c3.7-0.4,56.8-7.1,56.8-64.9c0-48.9-37.8-60.3-54.1-63c-8.5-1.4-17.4-1.4-23.7,0c-1.5,0.3-3-0.7-3.4-2.2c-0.3-1.5,0.6-3,2.2-3.4 c5.6-1.2,12.7-1.4,20-0.8C351.4,205.1,337.9,179.4,312,163.9z"/> <path class="st1" d="M397.3,259.2c-12.7-12-28.4-16.6-39.3-18.4c0,0-0.1,0-0.1,0c-0.8-46.6-23.7-70.2-43-81.8 c-21.2-12.7-42.1-14-43-14l-0.2,0c-52.5,0-83.3,35.8-90.5,45.3c-7.5-4.4-16.7-6.7-27.5-6.7c-0.1,0-0.2,0-0.3,0 c-33.4,0-50.6,18-51.1,53.6c-9.3,2.9-43.6,17.2-43.6,72.8c0,26.6,13.2,47.2,38.2,59.6c18.6,9.2,36.9,10.5,37.7,10.6l220.2,0l0.1,0 c0.6-0.1,62-6.7,62-70.6C416.9,288.3,410.3,271.4,397.3,259.2z M354.5,374.3H134.8c-2.8-0.2-70.5-6.5-70.5-64.5 c0-59,39.6-67.5,41.3-67.8l2.3-0.4l0-3.3c0-12.2,0.2-49.1,45.5-49.1c0.1,0,0.2,0,0.3,0c14,0,24.9,4.1,32.4,12.1 c12.7,13.4,11.7,33.7,11.7,34c-0.1,1.6,1.1,2.9,2.7,3c1.6,0.1,2.9-1.1,3-2.7c0.1-0.9,1.2-22.9-13.2-38.1c-1.4-1.4-2.8-2.8-4.3-4 c6.8-9,36-42.8,85.7-42.8c1.3,0.1,20.9,1.6,40.3,13.2c26,15.6,39.4,41.2,40.2,76.2c-7.3-0.7-14.4-0.4-20,0.8 c-1.5,0.3-2.5,1.8-2.2,3.4c0.3,1.5,1.8,2.5,3.4,2.2c6.3-1.4,15.2-1.4,23.7,0c16.3,2.6,54.1,14,54.1,63 C411.2,367.2,358.2,373.9,354.5,374.3z"/> <circle class="st2" cx="188.5" cy="327.8" r="9.9"/> <circle class="st2" cx="227.9" cy="291.2" r="9.9"/> <circle class="st2" cx="256.9" cy="355.4" r="9.9"/> <circle class="st2" cx="301.3" cy="298.6" r="9.9"/> <circle class="st2" cx="266.7" cy="250" r="9.9"/> <circle class="st2" cx="266.7" cy="210.6" r="9.9"/> <circle class="st2" cx="360.1" cy="298.6" r="9.9"/> <circle class="st2" cx="148" cy="220.8" r="9.9"/> <circle class="st2" cx="160.2" cy="279.9" r="9.9"/> <circle class="st2" cx="128.2" cy="327.8" r="9.9"/> <polyline class="st3" points="128.2,317.9 128.2,295.2 94,295.2 "/> <path class="st4" d="M150.3,279.9"/> <line class="st3" x1="150.3" y1="279.9" x2="94" y2="279.9"/> <polyline class="st3" points="198.4,327.8 209.6,327.8 209.6,299.5 188.5,299.5 188.5,257.2 "/> <polyline class="st3" points="227.9,301.1 227.9,345.5 161,345.5 "/> <polyline class="st3" points="291.4,298.6 270.1,298.6 270.1,313 241.3,313 "/> <polyline class="st3" points="266.7,259.9 266.7,277.1 243.1,277.1 243.1,226 "/> <path class="st3" d="M160.2,289.8c0,0-0.2,20.5,0,20.5s21.3,0,21.3,0"/> <line class="st3" x1="237.8" y1="291.2" x2="256.9" y2="291.2"/> <polyline class="st3" points="276.6,250 298.2,250 298.2,277.1 318.3,277.1 "/> <polyline class="st3" points="256.9,210.6 216.7,210.6 216.7,270.1 188.5,270.1 "/> <line class="st3" x1="124.6" y1="277.8" x2="124.6" y2="271.3"/> <line class="st3" x1="114.7" y1="279.9" x2="114.7" y2="273.5"/> <line class="st3" x1="105.1" y1="279.9" x2="105.1" y2="275.6"/> <line class="st3" x1="301.3" y1="308.5" x2="301.3" y2="317.9"/> <polyline class="st3" points="266.7,355.4 303.1,355.4 303.1,338.8 278.3,338.8 "/> <line class="st3" x1="177.2" y1="327.8" x2="138.1" y2="327.8"/> <polyline class="st3" points="148,232.4 148,257.2 178.6,257.2 178.6,279.9 170,279.9 "/> <polyline class="st3" points="157.8,220.8 173.7,220.8 173.7,207.4 "/> <polyline class="st3" points="350.3,298.6 332.6,298.6 332.6,326.8 256.9,326.8 256.9,345.5 "/> <polyline class="st3" points="276.6,211.5 294.7,211.5 294.7,200.1 308.5,200.1 308.5,237.5 "/> </g> </svg>