<?xml version="1.0" encoding="UTF-8"?>
<svg viewBox="0 0 1225 817" xmlns="http://www.w3.org/2000/svg">
 <g fill-rule="evenodd" stroke-width=".5">
  <path d="m0 408.5v-408.5h1225v817h-1225v-408.5zm379.8-155l0.2 3.5 0.5 33.8q0.5 33.7 31.5 38.7t34.5 5.5l3.5 0.5 3 0.5 3 0.5 0.5 0.3 0.5 0.2 17.5 3.8q17.5 3.7 22.3 6.4 4.7 2.8 4.7 6.3t-13.7 11.3q-13.8 7.7-41.8 22.2t-29 15l-1 0.5-1 0.5-1 0.5-1 0.5-1 0.5-1 0.5-1 0.5-0.2 0.3-0.3 0.2-0.3 0.2-0.2 0.3 1.5 0.5 1.5 0.5 62 9.5q62 9.5 65.5 10l3.5 0.5 0.5 0.3 0.5 0.2h0.2q0.3 0 0.6-44.5l0.2-44.5 0.5-20.8q0.5-20.7 37-40.2t72.5-14.5 36.2 5.3q0.3 0.2 0.6 12.2l0.2 12-0.8 64.5q-0.7 64.5-3.4 68.3-2.8 3.7-15.6 10.4-12.7 6.8-12.7 7.8v1l0.3 0.2 0.2 0.3 2 0.5 2 0.5 25 4.5q25 4.5 28 5l3 0.5 1.5 0.5 1.5 0.5 2 0.5 2 0.5v0.5l37 6.2q37 6.3 39.5 6.8l2.5 0.5 0.2 0.3 0.3 0.2v1l-0.3 0.2-0.2 0.3 0.2 0.3 0.3 0.2 0.5 1 0.5 1h1l0.3-0.2 0.2-0.3 3-2q3-2 5-2.3 2-0.2 2.5-1.4 0.5-1.3 3-1.6l2.5-0.2v-0.5l1-0.5 1-0.5 3-1.3q3-1.2 3-2.2t16.8-10q16.7-9 20-10.8 3.2-1.7 3.7-2l0.5-0.2v-0.5l1-0.3 1-0.2v-0.2q0-0.3 1-0.8l1-0.5 1-0.5 1-0.5 1-0.5 1-0.5 5.5-2.7q5.5-2.8 5.5-3.8t13.5-7.2q13.5-6.3 39.5-6.3t56.5 4 39-2 8.7-6.3l0.3-0.2 0.3-0.2 0.2-0.3 1-0.5 1-0.5 1.5-0.5 1.5-0.5 0.2-0.3 0.3-0.2 0.3 0.2 0.2 0.3 0.2 0.3 0.3 0.2 0.5 9 0.5 9 0.3 0.2 0.2 0.3 2.5 0.3 2.5 0.2 0.5-31.8q0.5-31.7 7.5-35.7t36-0.5 37.5-2.5 9.5-6.5l1-0.5 0.2-0.3 0.3-0.2 0.3-0.2 0.2-0.3 1-0.5 1-0.5h2l0.2 0.3 0.3 0.2 0.3 9q0.2 9-3.3 9.2-3.5 0.3-8.7 3.6-5.3 3.2-5.3 11.2t-0.3 39.5l-0.2 31.5 3.2-1q3.3-1 3.6-1.2 0.2-0.3 1.7-0.8l1.5-0.5 1-0.5 1-0.5 0.5-0.3 0.5-0.2v-0.5l0.2-0.3 0.3-0.2 0.3-0.2 0.2-0.3 0.2-0.3 0.3-0.2 0.3 0.2 0.2 0.3 0.2 0.3 0.3 0.2 0.3 0.2 0.2 0.3 0.2 0.3 0.3 0.2v4l-0.3 0.2-0.2 0.3-0.2 0.3-0.3 0.2-0.3 0.2-0.2 0.3-0.2 0.3-0.3 0.2-0.3 0.2-0.2 0.3-0.2 0.3-0.3 0.2-0.3 0.2-0.2 0.3-0.2 0.3q-0.3 0.2-3.3 2.2t-8.3 5.5q-5.2 3.5-5.4 4.5-0.3 1-1.6 0.5-1.2-0.5-1.2 0.5t1 1 1 1-5.5 2.2q-5.5 1.3-9.3 3.6-3.7 2.2-5.2 11.7t-3.8 13.3q-2.2 3.7-10.7 9.2t-16.5 7.5-23 0.7l-15-1.2v0.2q0 0.3 0.5 1.6 0.5 1.2-2 3l-2.5 1.7-0.2 0.3q-0.3 0.2-1.6 0.7-1.2 0.5-1.7 2.5t-3 2.8q-2.5 0.7-1.5 1.2t-9.8 6.2q-10.7 5.8-11.7 13.3t-4 12.5-15 12-22.3 9.5l-10.2 2.5-1 0.2-1 0.3-3.5 0.5q-3.5 0.5-8.5 4t-18 8.5-21.5 6-18.5 1.5-23.5 0-17-2.5-5-3.7q-1.5-1.8-6-4-4.5-2.3-19.5-6.8t-21.5-7.5-17.7-8.7q-11.3-5.8-13.3-6.3t-3.7-1.3q-1.8-0.7 0.2-1.2l2-0.5-2.5-0.5q-2.5-0.5-6.5-1.2-4-0.8-4.2-1.8-0.3-1-6-4.2-5.8-3.3-10.6-8-4.7-4.8-5.2-3.8t-4.2 0.2l-3.8-0.7-0.2-0.3-0.3-0.2-0.3-0.2-0.2-0.3h-2l-0.2 0.3-0.3 0.2h-0.5l-0.5 24.2q-0.5 24.3-3.5 24.8t-16 0.8l-13 0.2 0.2 1.5 0.3 1.5 0.3 0.2 0.2 0.3 4.5 1q4.5 1 5.5 1.5l1 0.5 0.2 0.3 0.3 0.2v2l-0.5 1.5-0.5 1.5-0.3 0.2-0.2 0.3-1 0.5-1 0.5-3.5 0.5-3.5 0.5-2.5 0.5-2.5 0.5 0.2 0.3 0.3 0.2 0.3 0.2 0.2 0.3 2 0.5 2 0.5v0.5h0.5l0.3 0.2 0.2 0.3 0.2 0.3 0.3 0.2 0.3-0.2 0.2-0.3 2.5-0.3q2.5-0.2 1.5 2.3t0.5 2.7q1.5 0.3 5 0.3h3.5l0.2-0.3 0.3-0.2 0.3-0.2 0.2-0.3 1.5-0.5 1.5-0.5h2l-0.2 0.3-0.3 0.2-0.3 0.2-0.2 0.3-0.2 0.3-0.3 0.2-0.3 0.2-0.2 0.3-0.2 0.3-0.3 0.2-0.3 0.2-0.2 0.3-0.2 0.3-0.3 0.2-0.3 0.2-0.2 0.3-0.2 0.3-0.3 0.2-0.3 0.2-0.2 0.3-0.2 0.3-0.3 0.2-0.3 0.2-0.2 0.3-1 0.5q-1 0.5-24.5 3t-23.3 3.2q0.3 0.8-18 1-18.2 0.3-29.2-1.2t-19-4-8.8-3.2q-0.7-0.8-17.4-6-16.8-5.3-28.3-13.3t-19-9l-7.5-1h-4l-1-0.3-1-0.2v0.2q0 0.3-2.5 2.3t-5 4-3.7 2.7q-1.3 0.8-3.6 2-2.2 1.3-43.7 0.3t-58.3-6.7l-16.7-5.8-0.3-0.2-0.2-0.3-1-0.5-1-0.5-1-0.3-1-0.2v-2h-2l0.2-1 0.3-1 0.3-0.2 0.2-0.3v-0.5l-0.5-0.2q-0.5-0.3-2-0.8t-2-1.2q-0.5-0.8-2.5-1-2-0.3-11.5-5.3t-13.3-8.7q-3.7-3.8-4.2-7.3l-0.5-3.5 0.5-1q0.5-1 3.5-3.5t13.3-5.3q10.2-2.7 12.4-4.4 2.3-1.8 3-26.8l0.8-25h2v1q0 1 8.5 1.8 8.5 0.7 13.5 0.7h5l1-0.5 1-0.5-0.2-0.3-0.3-0.2-0.3-1-0.2-1-3.5-0.2-3.5-0.3-3.5-0.5q-3.5-0.5-7-1l-3.5-0.5-2.5-0.5-2.5-0.5 0.2-0.3 0.3-0.2 0.3-0.2 0.2-0.3 2.2-1.3q2.3-1.2 2.6-1.4l0.2-0.3 1-0.3 1-0.2v-2l-3-0.2q-3-0.3-30-4l-27-3.8-1.5 0.2q-1.5 0.3-3.5 0.8t-1.5 1-5 1.5-18 4.5-16.5 8.2q-4 4.8-7.5 6.3t-3.5 2.5-1.2 1.5q-1.3 0.5-0.8 5.5t5.2 8.8q4.8 3.7 7.6 7.4 2.7 3.8 2.7 8.8t-5.3 8.2q-5.2 3.3-23.2 7.8t-18.5 5.2q-0.5 0.8-2.5 1.3t-2 1.5-3 2.2q-3 1.3-16 1.8t-18-0.5-27-2-42-5-21.8-6.3q-1.7-2.2-5.4-7.4l-3.8-5.3-0.2-0.3-0.3-0.2-0.3-0.2-0.2-0.3-0.2-0.3-0.3-0.2-0.3-0.2-0.2-0.3-0.2-0.3-0.3-0.2-0.3-0.2-0.2-0.3-0.2-0.3-0.3-0.2-0.3-0.2-0.2-0.3-0.2-0.3-0.3-0.2-0.3-0.2-0.2-0.3h4l7 0.5q7 0.5 10 1l3 0.5h1l1-0.3 1-0.2-0.2-1-0.3-1-0.3-1-0.2-1-2.5-0.2-2.5-0.3-1-0.5-1-0.5 6-0.5 6-0.5-0.2-0.3-0.3-0.2-0.3-0.2-0.2-0.3-1.5-0.3q-1.5-0.2-1.7-2.2l-0.3-2-0.3-0.2-0.2-0.3 0.2-0.3 0.3-0.2 0.3-1 0.2-1 1.5-0.2q1.5-0.3 5.5-0.6l4-0.2v-5l-2-0.2-2-0.3-2-0.5q-2-0.5-14-4.5t-13.2-26.7q-1.3-22.8-4-23.6l-2.8-0.7-2.5-0.5-2.5-0.5v-0.5l-2.5-0.2q-2.5-0.3-8-1.3t-5.5-15.3v-14.2h-0.5v-26q0-26 6.7-29.8 6.8-3.7 27.8-1.2t36-4.5l15-7 1-0.5 1-0.5h4l0.2 0.3 0.3 0.2 0.3 11 0.2 11 0.2 12.5q0.3 12.5 0.6 25.5l0.2 13h0.5l0.5 1 0.5 1 0.3-0.2 0.2-0.3h17l1-0.5 1-0.5-0.2-0.3-0.3-0.2-0.3-0.2-0.2-0.3-0.2-0.3-0.3-0.2-0.5-1-0.5-1-0.3-0.2q-0.2-0.3-2.4-2l-2.3-1.8-0.5-1-0.5-1-0.3-0.2-0.2-0.3-0.2-0.3-0.3-0.2-0.3-1-0.2-1 1 0.2 1 0.3 0.2 0.3 0.3 0.2 0.3 0.2q0.2 0.3 3.7 0.6l3.5 0.2-0.2-1.5-0.3-1.5-0.3-0.2-0.2-0.3 0.2-0.3 0.3-0.2 0.3-0.2 0.2-0.3-0.2-0.3-0.3-0.2-0.3-0.2-0.2-0.3 1-0.5 1-0.5-0.2-0.3-0.3-0.2-0.5-1-0.5-1-0.3-0.2q-0.2-0.3-4.2-4.3t-6-5.5-2.2-5.8q-0.3-4.2 0.4-5.4 0.8-1.3 1.6-2.6 0.7-1.2 2.4-0.2 1.8 1 4.8-2.8 3-3.7 4.2-7 1.3-3.2 2.6-4.7l1.2-1.5v-49l0.2-4 0.3-4 0.3-0.2 0.2-0.3 0.2-0.3 0.3-0.2 0.3-0.2 0.2-0.3 6-3q6-3 28-1t34.5-4 13.5-6.5l1-0.5 1-0.5 1-0.5 1.5-0.3 1.5-0.2 0.8 10q0.7 10 1 15.5l0.2 5.5v40h0.5l0.3 0.2 0.2 0.3 0.2 0.3 0.3 0.2 0.5 1 0.5 1 0.3-0.2 0.2-0.3h11l1.5-0.3 1.5-0.2 0.2-1 0.3-1v-2l-0.3-0.2-0.2-0.3-1.5-0.5q-1.5-0.5-2.5-1t-0.8-2.2l0.3-1.8-0.3-0.2-0.2-0.3-0.2-0.3-0.3-0.2-0.3-0.2-0.2-0.3h2l2.2 0.3q2.3 0.2 2.6 0.4 0.2 0.3 1.7 0.8l1.5 0.5h1l0.2-0.3 0.3-0.2 0.3-0.2 0.2-0.3-0.2-0.3-0.3-0.2-0.3-0.2-0.2-0.3-0.2-0.3-0.3-0.2-0.3-0.2-0.2-0.3-0.2-0.3-0.3-0.2-0.3-0.2-0.2-0.3 0.2-0.3 0.3-0.2 0.3-0.2 0.2-0.3-0.2-0.3-0.3-0.2-0.5-2q-0.5-2-3.8-5.2-3.2-3.3-3.7-2.6-0.5 0.8-1.5 0.8t-2.2-3q-1.3-3-1.8-7.5t0.5-6.5 3.7-2.2q2.8-0.3 5.8-2.8t4.2-6.2q1.3-3.8 3-6.8l1.8-3v-54l1-0.2 1-0.3 1-0.5 1-0.5 1-0.5 1-0.5 1-0.5 1-0.5 4-1.5q4-1.5 19.5 0.5t22 1.5 18.5-6.5 14-6.3q2-0.2 2 9.3t1.2 10q1.3 0.5 1.6 4z" fill="#fff" stroke="#fff"/>
  <path d="m686.2 275l0.3-1 0.5 1.5q0.5 1.5 1 3.5l0.5 2 0.5-3.5 0.5-3.5 0.5 8.5 0.5 8.5 0.5 1 0.5 1h0.5l-0.8 64.5q-0.7 64.5-3.4 68.3-2.8 3.7-15.6 10.4-12.7 6.8-12.7 7.8v1l0.3 0.2 0.2 0.3 2 0.5 2 0.5 25 4.5q25 4.5 28 5l3 0.5 1.5 0.5 1.5 0.5 2 0.5 2 0.5v0.5l-1 0.2-1 0.3 0.2 0.3 0.3 0.2 0.3 0.2 0.2 0.3h-3l-3-0.5q-3-0.5-38-5t-35.5-2.8q-0.5 1.8-3.5 2-3 0.3-13.5 5.3t-32 4-42 9l-20.5 10-1 0.5-1 0.5-1 0.5-1 0.5-1 0.3-1 0.2-0.5-0.2-0.5-0.3 0.2-0.3 0.3-0.2 0.3-0.2 0.2-0.3 0.2-0.3 0.3-0.2v-1h-0.5v-0.5l1-0.5 1-0.5 1-0.5 1-0.5 0.2-0.3 0.3-0.2 0.3-0.2 0.2-0.3 12-7q12-7 13-7.5l1-0.5 1-0.5 1-0.5 1-0.5 1-0.5 0.2-0.3 0.3-0.2v-2l-0.3-0.2-0.2-0.3-3-0.5q-3-0.5-6.5-1.5t-4-2.7q-0.5-1.8-2.5-2-2-0.3-2.8-9-0.7-8.8-3.4-9.6l-2.8-0.7v-0.5h6l-0.2-1.5-0.3-1.5-0.3-0.2-0.2-0.3v-0.5h0.2q0.3 0 0.6-44.5l0.2-44.5h0.5l0.5-19 0.5-19 0.5-1 0.5-1 0.3 0.2 0.2 0.3 35.5 4.5q35.5 4.5 36.3 4.8 0.7 0.2 1.4-0.6 0.8-0.7 1.3-1.4 0.5-0.8 2-0.6 1.5 0.3 4.3-2 2.7-2.2 6.4-3.4 3.8-1.3 7.6-3.6 3.7-2.2 4.4-3.4 0.8-1.3 4.8-2.3t6.8-3.3q2.7-2.2 3.4-2 0.8 0.3 10.8-4.7t11.5-5.3q1.5-0.2 1.7-1.2z" fill="#232424" stroke="#232424"/>
  <path d="m691.8 281l0.2 12h-0.5l-0.5-1-0.5-1-0.5-8.5-0.5-8.5-0.5 3.5-0.5 3.5-0.5-2q-0.5-2-1-3.5l-0.5-1.5-0.3 1q-0.2 1-1.7 1.2-1.5 0.3-12 5.3t-11 6.3q-0.5 1.2-17 9.4-16.5 8.3-19.5 9.3t-3.8 1.7q-0.7 0.8-1.4 0.6-0.8-0.3-36.3-4.8l-35.5-4.5-0.2-0.3-0.3-0.2-0.5 1-0.5 1-0.5 19-0.5 19h-0.5l0.5-20.8q0.5-20.7 37-40.2t72.5-14.5 36.2 5.3q0.3 0.2 0.6 12.2z" fill="#3f3f3f" stroke="#3f3f3f"/>
  <path d="m1158 350l1-0.5h2l0.2 0.3 0.3 0.2 0.3 9q0.2 9-3.3 9.2-3.5 0.3-8.7 3.6-5.3 3.2-5.3 11.2t-0.3 39.5l-0.2 31.5 3.2-1q3.3-1 3.6-1.2 0.2-0.3 1.7-0.8l1.5-0.5 1-0.5 1-0.5 0.5-0.3 0.5-0.2h0.5l0.3 1 0.2 1-1 0.2-1 0.3-0.2 0.3-0.3 0.2-0.3 0.2-0.2 0.3-1 0.5-1 0.5-0.2 0.3-0.3 0.2-0.3 0.2-0.2 0.3-1 0.5q-1 0.5-2 1t-41-4.5-41.8-6.3q-1.7-1.2-2.4-5.7-0.8-4.5-3.3-5l-2.5-0.5v-5h6l0.5-31.8q0.5-31.7 7.5-35.7t36-0.5 37.5-2.5 9.5-6.5l1-0.5 0.2-0.3 0.3-0.2 0.3-0.2 0.2-0.3 1-0.5z" fill="#1e1f1f" stroke="#1e1f1f"/>
  <path d="m1054.5 410l1.5-0.5 0.2-0.3 0.3-0.2 0.3 0.2 0.2 0.3 0.2 0.3 0.3 0.2 0.3 9.5 0.2 9.5h-1l-3 0.2q-3 0.3-9.2 4-6.3 3.8-6.3 43.3v39.5l0.3 0.2 0.2 0.3 2.5-0.5q2.5-0.5 3-1t2-1l1.5-0.5 0.2-0.3 0.3-0.2 0.3-0.2 0.2-0.3 1-0.5 1-0.5 1-0.3 1-0.2-0.2 1-0.3 1-0.3 0.2-0.2 0.3-0.2 0.3-0.3 0.2-0.3 0.2-0.2 0.3-1 0.5q-1 0.5-2 1l-1 0.5-0.2 0.3-0.3 0.2-0.3 0.2-0.2 0.3-0.2 0.3-0.3 0.2-0.3 0.2-0.2 0.3v0.5l-7-0.2q-7-0.3-41.5-5.3t-36.5-6.5-2.8-4.8l-0.7-3.2-0.3-0.2-0.2-0.3-3-0.5-3-0.5-0.2-0.3-0.3-0.2-0.5 11.5-0.5 11.5-0.5-13.5q-0.5-13.5-0.8-14l-0.2-0.5-0.2-0.5q-0.3-0.5-0.3-2v-1.5l0.3 0.2 0.2 0.3 0.2 0.3 0.3 0.2 0.5-4.5 0.5-4.5h0.5v12l3 0.2 3 0.3h2l0.2-0.3 0.3-0.2 0.5-32.5q0.5-32.5 2.8-34.3l2.2-1.7 1-0.5 1-0.5 0.2-0.3 0.3-0.2v-1l-0.3-0.2-0.2-0.3-6-0.5q-6-0.5-18-0.5t-17.5 1-23 9.5l-17.5 8.5-1 0.5-1 0.5-1 0.5-1 0.5-2.5 0.3-2.5 0.2v-0.5l0.2-0.3 0.3-0.2 0.3-0.2 0.2-0.3 1.5-0.5 1.5-0.5 1-0.5 1-0.5 1-0.5 1-0.5 5.5-2.7q5.5-2.8 5.5-3.8t13.5-7.2q13.5-6.3 39.5-6.3t56.5 4 39-2 8.7-6.3l0.3-0.2 0.3-0.2 0.2-0.3 1-0.5 1-0.5 1.5-0.5z" fill="#202020" stroke="#202020"/>
  <path d="m289 274v-26l1.5 0.2 1.5 0.3 37 4.5q37 4.5 42.8 1.2 5.7-3.2 6.7-0.2t1.3 3h0.2l0.5 33.8q0.5 33.7 31.5 38.7t34.5 5.5l3.5 0.5 3 0.5 3 0.5 0.5 0.3 0.5 0.2v0.5l0.2 0.3 0.3 0.2 0.3 1 0.2 1-1 0.2-1 0.3v0.5l-2-0.2-2-0.3-3.5-0.5q-3.5-0.5-38-5.2-34.5-4.8-35.5-3-1 1.7-11.5 2.2t-42.5-4.5-32-17.3v-38.2z" fill="#1f2020" stroke="#1f2020"/>
  <path d="m53 393.5v-25.5l1 0.2 1 0.3 37 5q37 5 42.5 2.5t6.5-3l1-0.5 1.5-0.3 1.5-0.2 0.2 12.5q0.3 12.5 0.6 25.5l0.2 13v24l2.5 0.2 2.5 0.3 0.5 0.3 0.5 0.2v0.5l0.2 0.3 0.3 0.2 0.3 1 0.2 1-1 0.2-1 0.3h-4l-0.2-0.3-0.3-0.2h-0.5l-3-0.2q-3-0.3-32.5-4.8t-30-0.2q-0.5 4.2-6 4.2h-5.5l-2.5-0.2q-2.5-0.3-8-1.3t-5.5-15.3v-39.7z" fill="#232424" stroke="#232424"/>
  <path d="m171.8 311.5l0.2-3.5 34 4.8q34 4.7 39.5 4.2t9-2 3.7-1.8l0.3-0.2 0.3-0.2 0.2-0.3 1.5-0.3 1.5-0.2 0.2 4q0.3 4 0.6 4h0.2v40l0.5 12.5q0.5 12.5 3 12.7l2.5 0.3v0.5h-0.5l-0.3 0.2-0.2 0.3-0.2 0.3-0.3 0.2-0.3 0.2-0.2 0.3-2 0.5-2 0.5 0.2 0.3 0.3 0.2 0.3 0.5 0.2 0.5h-2q-2 0-2.2 1.5-0.3 1.5-6 3.3-5.8 1.7-44.3-3.6-38.5-5.2-38.5-16.2v-60h0.5l0.3-3.5z" fill="#1f2020" stroke="#1f2020"/>
  <path d="m822.5 469.2l2.5-0.2h0.5l0.3 0.2 0.2 0.3-1 0.5-1 0.5-0.2 0.3-0.3 0.2-0.3 0.2-0.2 0.3-0.2 0.3-0.3 0.2-0.3 0.2-0.2 0.3 3.5 0.5 3.5 0.5 48 7q48 7 58.5 0t12-7.3q1.5-0.2 1.5 3.3v3.5h-0.5l-0.5 4.5-0.5 4.5-0.3-0.2-0.2-0.3-0.2-0.3-0.3-0.2v1.5q0 1.5 0.3 2l0.2 0.5-3 0.8q-3 0.7-9.2 4.4-6.3 3.8-6.6 44.3l-0.2 40.5 1.5 0.2 1.5 0.3 0.2 0.3 0.3 0.2 0.3-0.2 0.2-0.3 1.5-1q1.5-1 2.5-1.5l1-0.5 1-0.5 1-0.5 0.2-0.3 0.3-0.2 0.3-0.2 0.2-0.3 1-0.5 1-0.5 0.2-0.3 0.3-0.2 0.3 1 0.2 1-0.5 0.2-0.5 0.3v0.5l-0.5 0.2-0.5 0.3-1 0.5-1 0.5-1 0.5-1 0.5-0.2 0.3-0.3 0.2-0.3 0.2-0.2 0.3-0.2 0.3-0.3 0.2-0.3 0.2q-0.2 0.3-6.7 0.3t-41-5-38-6.7q-3.5-1.8-3.7-4.8-0.3-3-34-8.8l-33.8-5.7-3-0.5-3-0.5v-1l0.5-0.3 0.5-0.2 3 0.2 3 0.3 31.5 3.5q31.5 3.5 33.5 3.5h2l0.2-0.3 0.3-0.2 0.3-33.5q0.2-33.5 4.2-35.7l4-2.3 1-0.5 1-0.5 0.2-0.3 0.3-0.2v-1l-0.3-0.2-0.2-0.3-3.5-0.5-3.5-0.5-3-0.5q-3-0.5-18-2.5t-17.5-0.5l-2.5 1.5-1 0.5-1 0.5-1 0.5-1 0.5-1 0.3-1 0.2v-2l1-0.2 1-0.3 0.2-0.3 0.3-0.2 0.3-0.2 0.2-0.3 1-0.5 1-0.5v-0.5h0.5l0.3-0.2 0.2-0.3 3-2q3-2 5-2.3 2-0.2 2.5-1.4 0.5-1.3 3-1.6z" fill="#232323" stroke="#232323"/>
  <g fill="#3e3f3f" stroke="#3e3f3f">
   <path d="m139 350l1-0.5h4l0.2 0.3 0.3 0.2 0.3 11 0.2 11-1.5 0.2-1.5 0.3-1 0.5q-1 0.5-6.5 3t-42.5-2.5l-37-5-1-0.3-1-0.2v51h-0.5v-26q0-26 6.7-29.8 6.8-3.7 27.8-1.2t36-4.5l15-7 1-0.5z"/>
   <path d="m257 290l1-0.5 1.5-0.3 1.5-0.2 0.8 10q0.7 10 1 15.5l0.2 5.5h-0.2q-0.3 0-0.6-4l-0.2-4-1.5 0.2-1.5 0.3-0.2 0.3-0.3 0.2-0.3 0.2q-0.2 0.3-3.7 1.8t-9 2-39.5-4.2l-34-4.8-0.2 3.5-0.3 3.5h-0.5l0.2-4 0.3-4 0.3-0.2 0.2-0.3 0.2-0.3 0.3-0.2 0.3-0.2 0.2-0.3 6-3q6-3 28-1t34.5-4 13.5-6.5l1-0.5 1-0.5z"/>
  </g>
  <path d="m773 496.2l1-0.2-0.2 1q-0.3 1-26 15.8l-25.8 14.7-0.2 0.3-0.3 0.2-0.3 0.2-0.2 0.3-0.2 0.3-0.3 0.2-0.3 0.2-0.2 0.3-0.2 0.3-0.3 0.2-0.3 0.2-0.2 0.3-0.2 0.3-0.3 0.2-0.3 0.2-0.2 0.3-0.2 0.3-0.3 0.2-0.3 0.2-0.2 0.3 1 0.5 1 0.5 1 0.5 1 0.5 0.2 0.3 0.3 0.2 0.3 0.2 0.2 0.3 25.5 7q25.5 7 25.5 7.3v0.2l-0.5 0.2-0.5 0.3v0.5l-3.5-0.2q-3.5-0.3-24.5-4.8l-21-4.5-1-0.3-1-0.2v6l-0.5 24.2q-0.5 24.3-3.5 24.8t-16 0.8l-13 0.2 0.2 1.5 0.3 1.5 0.3 0.2 0.2 0.3 4.5 1q4.5 1 5.5 1.5l1 0.5 0.2 0.3 0.3 0.2v2l-0.5 1.5-0.5 1.5-0.3 0.2-0.2 0.3-1 0.5-1 0.5-3.5 0.5-3.5 0.5-2.5 0.5-2.5 0.5 0.2 0.3 0.3 0.2 0.3 0.2 0.2 0.3 2 0.5 2 0.5v0.5l-3-0.2q-3-0.3-11.5-1.3l-8.5-1-0.2-0.3-0.3-0.2-0.3-0.2-0.2-0.3-1-0.5-1-0.5 3-0.5 3-0.5-1-0.5-1-0.5-0.2-0.3-0.3-0.2v-2l0.5-2q0.5-2 0.8-2.2l0.2-0.3 1.5-0.5q1.5-0.5 6.5-0.8l5-0.2-0.2-1.5-0.3-1.5-0.3-0.2-0.2-0.3-3-0.5-3-0.5-2.5-0.5q-2.5-0.5-11-1.8-8.5-1.2-9 0.8t-1.5 2-1.2 1q-0.3 1-0.8 0.5l-0.5-0.5-0.3 0.2-0.2 0.3-2.5 0.5-2.5 0.5-0.2 0.3-0.3 0.2-0.3 0.2-0.2 0.3-1 0.3-1 0.2v-0.5l0.2-0.3 0.3-0.2 0.3-0.2 0.2-0.3 0.2-0.3 0.3-0.2 0.3-0.2 0.2-0.3 1-0.5 1-0.5 0.2-0.3 0.3-0.2 0.3-0.2 0.2-0.3 0.2-0.3q0.3-0.2 1.6-1.4 1.2-1.3 2.4-3.6 1.3-2.2 0-3-1.2-0.7-2.2-29.4l-1-28.8 6 0.5q6 0.5 6-1.5t13-0.2q13 1.7 13.5 1.2t-0.5-0.8q-1-0.2-1-1.2v-1l6.5 1.2q6.5 1.3 10.3 4 3.7 2.8 4 3.8 0.2 1 1.2 1.2 1 0.3 4.5 0.3h3.5l0.2-4.3q0.3-4.2 6.6-8.4 6.2-4.3 29.2-15.8t24-11.8z" fill="#444" stroke="#444"/>
  <path d="m527.5 482.2l1.5-0.2h0.5v1l-0.3 0.2-0.2 0.3-0.2 0.3-0.3 0.2-0.3 0.2-0.2 0.3 0.5 0.3 0.5 0.2v0.2q0 0.3-7.5 4.3l-7.5 4-0.2 0.3-0.3 0.2-0.3 0.2-0.2 0.3-1 0.5-1 0.5-1 0.5-1 0.5-0.2 0.3-0.3 0.2-0.3 0.2-0.2 0.3 1.5 0.5 1.5 0.5 15.5 3.5q15.5 3.5 16 3.8l0.5 0.2-0.2 0.5-0.3 0.5h-0.5l-4.5-0.2q-4.5-0.3-11.5-1.3t-18-1.7q-11-0.8-11.5 20.2l-0.5 21v3l-0.2 5.5q-0.3 5.5-1 6.3-0.8 0.7-16.3 1.4l-15.5 0.8v4l4.5 0.8q4.5 0.7 5.5 1.2l1 0.5 0.2 0.3 0.3 0.2 0.3 0.2 0.2 0.3 0.2 0.3 0.3 0.2 0.3 0.2 0.2 0.3-0.2 0.3-0.3 0.2-0.5 1.5-0.5 1.5-0.3 0.2-0.2 0.3-2 0.5-2 0.5h-8q-8 0-9.5 0h-1.5l-4 0.5-4 0.5v0.5l-2.5-0.2-2.5-0.3-1.5-0.5-1.5-0.5 4-0.7q4-0.8 4.5-4 0.5-3.3 4-4.3t6.5-1.3l3-0.2v-4l-2.5-0.2-2.5-0.3-2.5-0.5q-2.5-0.5-5-1t-8.5-1.5-8 0l-2 1-1 0.5-1 0.5-0.2 0.3-0.3 0.2-0.3 0.2-0.2 0.3-0.2 0.3-0.3 0.2-0.3 0.2-0.2 0.3-1 0.3-1 0.2 0.2-0.5 0.3-0.5 0.3-0.2 0.2-0.3 0.2-0.3 0.3-0.2 0.3-0.2 0.2-0.3 0.2-0.3 0.3-0.2 0.3-0.2 0.2-0.3 0.2-0.3 0.3-0.2 0.3-0.2 0.2-0.3 0.2-0.3 0.3-0.2 0.3-0.2q0.2-0.3 1.2-2 1-1.8-1-2.6-2-0.7-2.8-28.4l-0.7-27.8 0.3-0.2 0.2-0.3 0.2-0.3 0.3-0.2 0.3-0.2 0.2-0.3 0.2-0.3 0.3-0.2 5.3 1q5.2 1 5.2-1t16 0.2q16 2.3 18.8 1 2.7-1.2 2.4-1.4-0.2-0.3-0.2-0.6v-0.2l14 1.8q14 1.7 27.5-5.3t15-7.3z" fill="#424242" stroke="#424242"/>
  <path d="m847 481l3 0.5 3.5 0.5 3.5 0.5 0.2 0.3 0.3 0.2v1l-0.3 0.2-0.2 0.3-1 0.5-1 0.5-4 2.3q-4 2.2-4.2 35.7l-0.3 33.5-0.3 0.2-0.2 0.3h-2q-2 0-33.5-3.5l-31.5-3.5-3-0.3-3-0.2v-0.2q0-0.3-25.5-7.3l-25.5-7-0.2-0.3-0.3-0.2-0.3-0.2-0.2-0.3-1-0.5-1-0.5-1-0.5-1-0.5 0.2-0.3 0.3-0.2 0.3-0.2 0.2-0.3 0.2-0.3 0.3-0.2 0.3-0.2 0.2-0.3 0.2-0.3 0.3-0.2 0.3-0.2 0.2-0.3 0.2-0.3 0.3-0.2 0.3-0.2 0.2-0.3 0.2-0.3 0.3-0.2 0.3-0.2 0.2-0.3 25.8-14.7q25.7-14.8 26-15.8l0.2-1 2.5-0.8q2.5-0.7 14.5-6.7t12-6.3v-0.2h0.2q0.3 0 0.6-0.5l0.2-0.5 1.5-0.2 1.5-0.3 1-0.5 1-0.5 2.5-1.5q2.5-1.5 17.5 0.5t18 2.5z" fill="#f5f5f5" stroke="#f5f5f5"/>
  <path d="m220 458.8v0.2h-2q-2 0-2-1.5t-13-1.7l-13-0.3 0.2 0.3 0.3 0.2 0.3 0.2 0.2 0.3 2.5 0.5 2.5 0.5h1l10 1.3q10 1.2 11.5 3 1.5 1.7 1.5 2v0.2h-2v31l1-0.2 1-0.3 1-0.5 1-0.5 0.2-0.3 0.3-0.2 0.3-0.2 0.2-0.3 18.5-8.5q18.5-8.5 21-9l2.5-0.5 1-0.5 1-0.5 1.5-0.3 1.5-0.2v0.5l-0.2 0.3-0.3 0.2-0.3 0.2-0.2 0.3-1 0.5-1 0.5-0.2 0.3-0.3 0.2-0.3 0.2-0.2 0.3 0.2 0.3 0.3 0.2 0.3 0.2 0.2 0.3-0.2 0.3-0.3 0.2-0.3 0.2-0.2 0.3-1.5 0.5q-1.5 0.5-4.5 1.5t-22 11-19.8 16.7q-0.7 6.8-2.4 7.8-1.8 1-2 2-0.3 1-17.6 11.2-17.2 10.3-22.7 10.8t-11.5-1-10.5-3.2q-4.5-1.8-6.5-13.8l-2-12 0.2-0.5q0.3-0.5 1.3-28t0.3-28.3q-0.8-0.7 0.2-1.4l1-0.8h0.5l0.3 0.2 0.2 0.3h4l1-0.3 1-0.2-0.2-1-0.3-1-0.3-0.2-0.2-0.3v-0.5l4.5-0.8q4.5-0.7 17-7.7t28-5.3q15.5 1.8 15.5 12.8t1.5 11.2q1.5 0.3 1.5 0.6z" fill="#3e3f3f" stroke="#3e3f3f"/>
  <path d="m959 420l6 0.5 0.2 0.3 0.3 0.2v1l-0.3 0.2-0.2 0.3-1 0.5-1 0.5-2.2 1.7q-2.3 1.8-2.8 34.3l-0.5 32.5-0.3 0.2-0.2 0.3h-2l-3-0.3-3-0.2v-15.5q0-3.5-1.5-3.3-1.5 0.3-12 7.3t-58.5 0l-48-7-3.5-0.5-3.5-0.5 0.2-0.3 0.3-0.2 0.3-0.2 0.2-0.3 0.2-0.3 0.3-0.2 0.3-0.2 0.2-0.3 1-0.5 1-0.5-0.2-0.3-0.3-0.2h-0.5v-0.5l1-0.5 1-0.5 3-1.3q3-1.2 3-2.2t16.8-10q16.7-9 20-10.8 3.2-1.7 3.7-2l0.5-0.2 1-0.2q1-0.3 1-0.6v-0.2l0.5 0.2q0.5 0.3 1.5 0.3h1l1-0.5 1-0.5 1-0.5 1-0.5 17.5-8.5q17.5-8.5 23-9.5t17.5-1 18 0.5z" fill="#f5f5f5" stroke="#f5f5f5"/>
  <path d="m536 431.8l3 0.2v0.5l2.8 0.7q2.7 0.8 3.4 9.6 0.8 8.7 2.8 9 2 0.2 2.5 2 0.5 1.7 4 2.7t6.5 1.5l3 0.5 0.2 0.3 0.3 0.2v2l-0.3 0.2-0.2 0.3-1 0.5-1 0.5-1 0.5-1 0.5-1 0.5q-1 0.5-13 7.5l-12 7-0.2 0.3-0.3 0.2-0.3 0.2-0.2 0.3-1 0.5-1 0.5-1 0.5-1 0.5v0.5l-1.5 0.2q-1.5 0.3-15 7.3t-27.5 5.3l-14-1.8-1-0.2q-1-0.3-18.5-3-17.5-2.8-17.7-10.8-0.3-8-4-8.8-3.8-0.7-16.3-1.7t-21 4-21.5 4-45-3.3l-32-2.2-6.5 0.2q-6.5 0.3-12 1l-5.5 0.8-1 0.2q-1 0.3-1 0.6v0.2l-1.5 0.2-1.5 0.3-2.5 0.5q-2.5 0.5-21 9l-18.5 8.5-0.2 0.3-0.3 0.2-0.3 0.2-0.2 0.3-1 0.5-1 0.5-1 0.3-1 0.2v-31h2l17 1.8q17 1.7 32.5 1.2t26-4.5 56.5-27.5 113.5-13.5 70.5 10.3z" fill="#eee" stroke="#eee"/>
  <path d="m143 450.8l3 0.2-1 0.8q-1 0.7-0.2 1.4 0.7 0.8-0.3 28.3t-1.3 28l-0.2 0.5h-22v3l4.5 0.8q4.5 0.7 5.5 1.2l1 0.5 0.2 0.3 0.3 0.2 0.3 0.2 0.2 0.3 0.2 0.3 0.3 0.2 0.5 1 0.5 1v2l-0.3 0.2-0.2 0.3-1 0.5-1 0.5-5 0.5q-5 0.5-8.5 1t-3 1-5.5 0.5h-6l-1-0.3-1-0.2-2.5-0.2-2.5-0.3-1-0.5-1-0.5 6-0.5 6-0.5-0.2-0.3-0.3-0.2-0.3-0.2-0.2-0.3-1.5-0.3q-1.5-0.2-1.7-2.2l-0.3-2-0.3-0.2-0.2-0.3 0.2-0.3 0.3-0.2 0.3-1 0.2-1 1.5-0.2q1.5-0.3 5.5-0.6l4-0.2v-5l-2-0.2-2-0.3-2-0.5q-2-0.5-14-4.5t-13.2-26.7q-1.3-22.8-4-23.6l-2.8-0.7-2.5-0.5-2.5-0.5v-0.5h5.5q5.5 0 6-4.2 0.5-4.3 30 0.2t32.5 4.8z" fill="#444" stroke="#444"/>
  <path d="m287.2 303l1.8-3v12.2q0 12.3 32 17.3t42.5 4.5 11.5-2.2q1-1.8 35.5 3 34.5 4.7 38 5.2l3.5 0.5 2 0.3 2 0.2 16 3.8q16 3.7 17.5 4.2l1.5 0.5 1 0.5 1 0.5 1.5 0.5 1.5 0.5 0.2 0.3 0.3 0.2v2l-0.3 0.2-0.2 0.3-0.2 0.3-0.3 0.2-0.3 0.2-0.2 0.3-1 0.5-1 0.5-1 0.5-1 0.5-1 0.5q-1 0.5-44 23t-48.5 23-67-8.8l-61.5-9.2v-0.5l-2.5-0.3q-2.5-0.2-3-12.7l-0.5-12.5h0.5l0.3 0.2 0.2 0.3 0.2 0.3 0.3 0.2 0.5 1 0.5 1 0.3-0.2 0.2-0.3h11l1.5-0.3 1.5-0.2 0.2-1 0.3-1v-2l-0.3-0.2-0.2-0.3-1.5-0.5q-1.5-0.5-2.5-1t-0.8-2.2l0.3-1.8-0.3-0.2-0.2-0.3-0.2-0.3-0.3-0.2-0.3-0.2-0.2-0.3h2l2.2 0.3q2.3 0.2 2.6 0.4 0.2 0.3 1.7 0.8l1.5 0.5h1l0.2-0.3 0.3-0.2 0.3-0.2 0.2-0.3-0.2-0.3-0.3-0.2-0.3-0.2-0.2-0.3-0.2-0.3-0.3-0.2-0.3-0.2-0.2-0.3-0.2-0.3-0.3-0.2-0.3-0.2-0.2-0.3 0.2-0.3 0.3-0.2 0.3-0.2 0.2-0.3-0.2-0.3-0.3-0.2-0.5-2q-0.5-2-3.8-5.2-3.2-3.3-3.7-2.6-0.5 0.8-1.5 0.8t-2.2-3q-1.3-3-1.8-7.5t0.5-6.5 3.7-2.2q2.8-0.3 5.8-2.8t4.2-6.2q1.3-3.8 3-6.8z" fill="#e9e9e9" stroke="#e9e9e9"/>
  <path d="m457 337.2v-0.2l17.5 3.8q17.5 3.7 22.3 6.4 4.7 2.8 4.7 6.3t-13.7 11.3q-13.8 7.7-41.8 22.2t-29 15l-1 0.5-1 0.5-1 0.5-1 0.5-1 0.5-1 0.5-1 0.5-0.2 0.3-0.3 0.2-0.3 0.2-0.2 0.3 1.5 0.5 1.5 0.5 62 9.5q62 9.5 65.5 10l3.5 0.5 0.5 0.3 0.5 0.2v0.5l0.2 0.3 0.3 0.2 0.3 1.5 0.2 1.5h-6l-3-0.2q-3-0.3-70.5-10.3t-113.5 13.5-56.5 27.5-26 4.5-32.5-1.2l-17-1.8v-0.2q0-0.3-1.5-2-1.5-1.8-11.5-3l-10-1.3h-1l-2.5-0.5-2.5-0.5-0.2-0.3-0.3-0.2-0.3-0.2-0.2-0.3 13 0.3q13 0.2 13 1.7t2 1.5h2l19 1.8q19 1.7 31 1.2t24.5-5 49.5-23.5 38-19.5l1-0.5 1-0.5 1-0.5 0.2-0.3 0.3-0.2 0.3-0.2 0.2-0.3 1-0.5 1-0.5 0.2-0.3 0.3-0.2 0.3-0.2 0.2-0.3-2.5-0.5-2.5-0.5-3-0.5q-3-0.5-58-9l-55-8.5-2-0.3-2-0.2-0.2-0.5-0.3-0.5-0.3-0.2-0.2-0.3 2-0.5 2-0.5 0.2-0.3 0.3-0.2 0.3-0.2 0.2-0.3 0.2-0.3 0.3-0.2h0.5l61.5 9.2q61.5 9.3 67 8.8t48.5-23 44-23l1-0.5 1-0.5 1-0.5 1-0.5 1-0.5 0.2-0.3 0.3-0.2 0.3-0.2 0.2-0.3 0.2-0.3 0.3-0.2v-2l-0.3-0.2-0.2-0.3-1.5-0.5-1.5-0.5-1-0.5-1-0.5-1.5-0.5q-1.5-0.5-17.5-4.2l-16-3.8v-0.5l1-0.3 1-0.2-0.2-1-0.3-1-0.3-0.2-0.2-0.3v-0.3z" fill="#080808" stroke="#080808"/>
  <path d="m379.8 253.5l0.2 3.5h-0.2q-0.3 0-1.3-3t-6.7 0.2q-5.8 3.3-42.8-1.2l-37-4.5-1.5-0.3-1.5-0.2v-2l1-0.2 1-0.3 1-0.5 1-0.5 1-0.5 1-0.5 1-0.5 1-0.5 4-1.5q4-1.5 19.5 0.5t22 1.5 18.5-6.5 14-6.3q2-0.2 2 9.3t1.2 10q1.3 0.5 1.6 4z" fill="#3f4040" stroke="#3f4040"/>
  <path d="m169.8 365.5l1.2-1.5v11q0 11 38.5 16.2 38.5 5.3 44.3 3.6 5.7-1.8 6-3.3 0.2-1.5 2.2-1.5h2l2 0.2 2 0.3 55 8.5q55 8.5 58 9l3 0.5 2.5 0.5 2.5 0.5-0.2 0.3-0.3 0.2-0.3 0.2-0.2 0.3-1 0.5-1 0.5-0.2 0.3-0.3 0.2-0.3 0.2-0.2 0.3-1 0.5-1 0.5-1 0.5q-1 0.5-38 19.5t-49.5 23.5-24.5 5-31-1.2l-19-1.8v-0.2q0-0.3-1.5-0.6-1.5-0.2-1.5-11.2t-15.5-12.8q-15.5-1.7-28 5.3t-17 7.7l-4.5 0.8-0.5-0.2-0.5-0.3-2.5-0.3-2.5-0.2v-24h0.5l0.5 1 0.5 1 0.3-0.2 0.2-0.3h17l1-0.5 1-0.5-0.2-0.3-0.3-0.2-0.3-0.2-0.2-0.3-0.2-0.3-0.3-0.2-0.5-1-0.5-1-0.3-0.2q-0.2-0.3-2.4-2l-2.3-1.8-0.5-1-0.5-1-0.3-0.2-0.2-0.3-0.2-0.3-0.3-0.2-0.3-1-0.2-1 1 0.2 1 0.3 0.2 0.3 0.3 0.2 0.3 0.2q0.2 0.3 3.7 0.6l3.5 0.2-0.2-1.5-0.3-1.5-0.3-0.2-0.2-0.3 0.2-0.3 0.3-0.2 0.3-0.2 0.2-0.3-0.2-0.3-0.3-0.2-0.3-0.2-0.2-0.3 1-0.5 1-0.5-0.2-0.3-0.3-0.2-0.5-1-0.5-1-0.3-0.2q-0.2-0.3-4.2-4.3t-6-5.5-2.2-5.8q-0.3-4.2 0.4-5.4 0.8-1.3 1.6-2.6 0.7-1.2 2.4-0.2 1.8 1 4.8-2.8 3-3.7 4.2-7 1.3-3.2 2.6-4.7z" fill="#eaeaea" stroke="#eaeaea"/>
  <path d="m683 525.8v1.2q0 1 1 1.2 1 0.3 0.5 0.8t-13.5-1.2q-13-1.8-13 0.2t-6 1.5l-6-0.5 1 28.8q1 28.7 2.2 29.4 1.3 0.8 0 3-1.2 2.3-2.4 3.6-1.3 1.2-1.6 1.4l-0.2 0.3-0.2 0.3-0.3 0.2-0.3 0.2-0.2 0.3-1 0.5-1 0.5-0.2 0.3-0.3 0.2-0.3 0.2-0.2 0.3-0.2 0.3-0.3 0.2-0.3 0.2-0.2 0.3v0.5l-1 0.2q-1 0.3-9.5 5.3t-14.5 5.5-8.5-0.5l-2.5-1-3-0.5-3-0.5-1-0.5-1-0.5h3l4 0.5q4 0.5 9.5 0.8l5.5 0.2v-10l0.2-14q0.3-14 0.6-36 0.2-22-12.3-23.8l-12.5-1.7-2-0.5-2-0.5 0.2-0.3 0.3-0.2 0.3-0.2 0.2-0.3 2-1q2-1 3-1.5l1-0.5 0.2-0.3 0.3-0.2v-1l-0.3-0.2-0.2-0.3-3.5-0.5q-3.5-0.5-24.5-4l-21-3.5-3-0.5-3-0.5v-0.5h0.5l0.3-0.5 0.2-0.5 4 0.2 4 0.3 27.5 3q27.5 3 38.5-3t25.8-3.7q14.7 2.2 15 10.2 0.2 8 12.7 10.2 12.5 2.3 12.5 2.6z" fill="#202020" stroke="#202020"/>
  <path d="m470 492.8l1 0.2v0.2q0 0.3 0.2 0.6 0.3 0.2-2.4 1.4-2.8 1.3-18.8-1-16-2.2-16-0.2t-5.2 1l-5.3-1-0.3 0.2-0.2 0.3-0.2 0.3-0.3 0.2-0.3 0.2-0.2 0.3-0.2 0.3-0.3 0.2 0.7 27.8q0.8 27.7 2.8 28.4 2 0.8 1 2.6-1 1.7-1.2 2l-0.3 0.2-0.3 0.2-0.2 0.3-0.2 0.3-0.3 0.2-0.3 0.2-0.2 0.3-0.2 0.3-0.3 0.2-0.3 0.2-0.2 0.3-0.2 0.3-0.3 0.2-0.3 0.2-0.2 0.3-0.2 0.3-0.3 0.2-0.3 0.5-0.2 0.5h-0.2q-0.3 0-11 6.2-10.8 6.3-20.8 6.3h-10l-2.5-0.5-2.5-0.5-1.5-0.5-1.5-0.5h4l4.5 0.5q4.5 0.5 9 0.5h4.5l0.2-0.3 0.3-0.2v-13.5q0-13.5 0.7-40 0.8-26.5-0.7-27l-1.5-0.5-3.5-0.2-3.5-0.3-3.5-0.5q-3.5-0.5-7-1l-3.5-0.5-2.5-0.5-2.5-0.5 0.2-0.3 0.3-0.2 0.3-0.2 0.2-0.3 2.2-1.3q2.3-1.2 2.6-1.4l0.2-0.3 1-0.3 1-0.2v-2l-3-0.2q-3-0.3-30-4l-27-3.8v-0.2q0-0.3-9.5-0.6l-9.5-0.2v-2l32 2.2q32 2.3 45 3.3t21.5-4 21-4 16.3 1.7q3.7 0.8 4 8.8 0.2 8 17.7 10.8 17.5 2.7 18.5 3z" fill="#1d1e1e" stroke="#1d1e1e"/>
  <path d="m721 544v-3l1 0.2 1 0.3 21 4.5q21 4.5 24.5 4.8l3.5 0.2v0.5l3 0.5 3 0.5 33.8 5.7q33.7 5.8 34 8.8 0.2 3 3.7 4.8 3.5 1.7 38 6.7t41 5 6.7-0.3l0.3-0.2 0.3-0.2 0.2-0.3 0.2-0.3 0.3-0.2 0.3-0.2 0.2-0.3 1-0.5 1-0.5 1-0.5 1-0.5 0.5-0.3 0.5-0.2h0.5l0.3-0.5 0.2-0.5h0.5l0.3-0.2 0.2-0.3 0.2-0.3 0.3-0.2 0.3-0.2 0.2-0.3 0.2-0.3 0.3-0.2v2l-0.3 0.2q-0.2 0.3-1.4 1.6l-1.3 1.2-0.3 0.2-0.2 0.3 2 0.5 2 0.5 3.5-0.5q3.5-0.5 4.5-1t2 1.8q1 2.2 2 2.4l1 0.3-0.2 0.3-0.3 0.2-0.3 0.2-0.2 0.3 1.5 0.5 1.5 0.5 2 0.5 2 0.5v0.5l-1 0.2-1 0.3-3.5 0.5q-3.5 0.5-8.5 4t-18 8.5-21.5 6-18.5 1.5-23.5 0-17-2.5-5-3.7q-1.5-1.8-6-4-4.5-2.3-19.5-6.8t-21.5-7.5-17.7-8.7q-11.3-5.8-13.3-6.3t-3.7-1.3q-1.8-0.7 0.2-1.2l2-0.5-2.5-0.5q-2.5-0.5-6.5-1.2-4-0.8-4.2-1.8-0.3-1-6-4.2-5.8-3.3-10.6-8-4.7-4.8-5.2-3.8t-4.2 0.2l-3.8-0.7-0.2-0.3-0.3-0.2-0.3-0.2-0.2-0.3h-2l-0.2 0.3-0.3 0.2h-0.5v-3z" fill="#e5e6e6" stroke="#e5e6e6"/>
  <path d="m580 547.5l0.5-3.5 0.3 0.2 0.2 0.3 0.2 0.3 0.3 0.2 0.3 0.2 0.2 0.3 1 0.5 1 0.5 0.2 0.3 0.3 0.2 1.5 12.5q1.5 12.5 2 13.5l0.5 1 0.5-0.5q0.5-0.5 0.8 0.5l0.2 1 0.8-0.5q0.7-0.5 1.4-1.3 0.8-0.7 8.3 0.8t9.3 2.2q1.7 0.8 2.4-0.4 0.8-1.3 1-1.6l0.3-0.2 0.5 9.5 0.5 9.5 0.5 1.5 0.5 1.5 0.5 1 0.5 1 0.3 0.2 0.2 0.3 0.5 0.3 0.5 0.2v10l-5.5-0.2q-5.5-0.3-9.5-0.8l-4-0.5h-3l1 0.5 1 0.5 3 0.5 3 0.5 2.5 1q2.5 1 8.5 0.5t14.5-5.5 9.5-5.3l1-0.2 1-0.2 1-0.3 0.2-0.3 0.3-0.2 0.3-0.2 0.2-0.3 2.5-0.5 2.5-0.5 0.2-0.3 0.3-0.2 0.5 0.5q0.5 0.5 0.8-0.5 0.2-1 1.2-1t1.5-2 9-0.8q8.5 1.3 11 1.8l2.5 0.5 3 0.5 3 0.5 0.2 0.3 0.3 0.2 0.3 1.5 0.2 1.5-5 0.2q-5 0.3-6.5 0.8l-1.5 0.5-0.2 0.3q-0.3 0.2-0.8 2.2l-0.5 2v2l0.3 0.2 0.2 0.3 1 0.5 1 0.5-3 0.5-3 0.5 1 0.5 1 0.5 0.2 0.3 0.3 0.2 0.3 0.2 0.2 0.3 8.5 1q8.5 1 11.5 1.3l3 0.2h0.5l0.3 0.2 0.2 0.3 0.2 0.3 0.3 0.2 0.3-0.2 0.2-0.3 2.5-0.3q2.5-0.2 1.5 2.3t0.5 2.7q1.5 0.3 5 0.3h3.5l0.2-0.3 0.3-0.2 0.3-0.2 0.2-0.3 1.5-0.5 1.5-0.5h2l-0.2 0.3-0.3 0.2-0.3 0.2-0.2 0.3-0.2 0.3-0.3 0.2-0.3 0.2-0.2 0.3-0.2 0.3-0.3 0.2-0.3 0.2-0.2 0.3-0.2 0.3-0.3 0.2-0.3 0.2-0.2 0.3-0.2 0.3-0.3 0.2-0.3 0.2-0.2 0.3-0.2 0.3-0.3 0.2-0.3 0.2-0.2 0.3-1 0.5q-1 0.5-24.5 3t-23.3 3.2q0.3 0.8-18 1-18.2 0.3-29.2-1.2t-19-4-8.8-3.2q-0.7-0.8-17.4-6-16.8-5.3-28.3-13.3t-19-9l-7.5-1h-4l-1-0.3-1-0.2-0.5-0.2-0.5-0.3 0.2-0.3 0.3-0.2 0.3-0.2 0.2-0.3 0.2-0.3 0.3-0.2 0.3-0.2 0.2-0.3 0.2-0.3 0.3-0.2 0.3-0.2 0.2-0.3 0.2-0.3 0.3-0.2 0.3-0.2 0.2-0.3 0.2-0.3 0.3-0.2 0.3-0.2 0.2-0.3 0.2-0.3 0.3-0.2 0.3-1q0.2-1 6.2-4.5t6.2-4.5q0.3-1 2.3-2t2.3-7q0.2-6-3.6-8.5-3.7-2.5-12-5.7l-8.2-3.3-1-0.3-1-0.2v-2l-1-0.2-1-0.3-0.2-0.3-0.3-0.2h-0.5v-3h0.5l0.3 0.2 0.2 0.3h1l0.2-0.3 0.3-0.2 0.3 0.2 0.2 0.3 1 0.5 1 0.5 13 4.5q13 4.5 16.5 6.5t8.7 0.3q5.3-1.8 11.6-8 6.2-6.3 14.7-3.3t11.3 3.7q2.7 0.8 3.2-2.7z" fill="#e2e3e3" stroke="#e2e3e3"/>
  <path d="m495.8 553.5l0.2-5.5h0.5l0.3 0.2 0.2 0.3 1 0.3 1 0.2v2l1 0.2 1 0.3 8.2 3.3q8.3 3.2 12 5.7 3.8 2.5 3.6 8.5-0.3 6-2.3 7t-2.3 2q-0.2 1-6.2 4.5t-6.2 4.5l-0.3 1-0.3 0.2-0.2 0.3-0.2 0.3-0.3 0.2-0.3 0.2-0.2 0.3-0.2 0.3-0.3 0.2-0.3 0.2-0.2 0.3-0.2 0.3-0.3 0.2-0.3 0.2-0.2 0.3-0.2 0.3-0.3 0.2-0.3 0.2-0.2 0.3-0.2 0.3-0.3 0.2-0.3 0.2-0.2 0.3 0.5 0.3 0.5 0.2v0.2q0 0.3-2.5 2.3t-5 4-3.7 2.7q-1.3 0.8-3.6 2-2.2 1.3-43.7 0.3t-58.3-6.7l-16.7-5.8-0.3-0.2-0.2-0.3-1-0.5-1-0.5-1-0.3-1-0.2v-2h-2l0.2-1 0.3-1 0.3-0.2 0.2-0.3v-0.5l1.5 0.2 1.5 0.3 1.5 0.5 1.5 0.5 10-1q10-1 37-1.5t31.5-1 9-0.5h4.5l0.2-0.3 0.3-0.2 0.3-0.2 0.2-0.3 0.2-0.3 0.3-0.2 0.3-0.2 0.2-0.3 0.2-0.3 0.3-0.2 0.3-0.2 0.2-0.3-4-0.5-4-0.5-2.5-0.5q-2.5-0.5-7-1l-4.5-0.5v-1l4-0.5 4-0.5h1.5q1.5 0 9.5 0h8l2-0.5 2-0.5 0.2-0.3 0.3-0.2 0.5-1.5 0.5-1.5 0.3-0.2 0.2-0.3-0.2-0.3-0.3-0.2-0.3-0.2-0.2-0.3-0.2-0.3-0.3-0.2-0.3-0.2-0.2-0.3-1-0.5q-1-0.5-5.5-1.2l-4.5-0.8v-4l15.5-0.8q15.5-0.7 16.3-1.4 0.7-0.8 1-6.3z" fill="#e4e5e5" stroke="#e4e5e5"/>
  <path d="m360.2 517l0.8-25h2v1q0 1 8.5 1.8 8.5 0.7 13.5 0.7h5l1-0.5 1-0.5-0.2-0.3-0.3-0.2-0.3-1-0.2-1 1.5 0.5q1.5 0.5 0.7 27-0.7 26.5-0.7 40v13.5l-0.3 0.2-0.2 0.3h-4.5q-4.5 0-9-0.5l-4.5-0.5h-4l1.5 0.5 1.5 0.5 2.5 0.5 2.5 0.5h10q10 0 20.8-6.3 10.7-6.2 11-6.2h0.2l1-0.2 1-0.3 0.2-0.3 0.3-0.2 0.3-0.2 0.2-0.3 0.2-0.3 0.3-0.2 0.3-0.2 0.2-0.3 1-0.5 1-0.5 2-1q2-1 8 0t8.5 1.5 5 1l2.5 0.5 2.5 0.3 2.5 0.2v4l-3 0.2q-3 0.3-6.5 1.3t-4 4.3q-0.5 3.2-4.5 4l-4 0.7 1.5 0.5 1.5 0.5 2.5 0.3 2.5 0.2v0.5l4.5 0.5q4.5 0.5 7 1l2.5 0.5 4 0.5 4 0.5-0.2 0.3-0.3 0.2-0.3 0.2-0.2 0.3-0.2 0.3-0.3 0.2-0.3 0.2-0.2 0.3-0.2 0.3-0.3 0.2-0.3 0.2-0.2 0.3h-4.5q-4.5 0-9 0.5t-31.5 1-37 1.5l-10 1-1.5-0.5-1.5-0.5-1.5-0.3-1.5-0.2-0.5-0.2q-0.5-0.3-2-0.8t-2-1.2q-0.5-0.8-2.5-1-2-0.3-11.5-5.3t-13.3-8.7q-3.7-3.8-4.2-7.3l-0.5-3.5 0.5-1q0.5-1 3.5-3.5t13.3-5.3q10.2-2.7 12.4-4.4 2.3-1.8 3-26.8z" fill="#76aac1" stroke="#76aac1"/>
  <path d="m287.5 471.2l6.5-0.2v2l9.5 0.2q9.5 0.3 9.5 0.6v0.2l-1.5 0.2q-1.5 0.3-3.5 0.8t-1.5 1-5 1.5-18 4.5-16.5 8.2q-4 4.8-7.5 6.3t-3.5 2.5-1.2 1.5q-1.3 0.5-0.8 5.5t5.2 8.8q4.8 3.7 7.6 7.4 2.7 3.8 2.7 8.8t-5.3 8.2q-5.2 3.3-23.2 7.8t-18.5 5.2q-0.5 0.8-2.5 1.3t-2 1.5-3 2.2q-3 1.3-16 1.8t-18-0.5-27-2-42-5-21.8-6.3q-1.7-2.2-5.4-7.4l-3.8-5.3-0.2-0.3-0.3-0.2-0.3-0.2-0.2-0.3-0.2-0.3-0.3-0.2-0.3-0.2-0.2-0.3-0.2-0.3-0.3-0.2-0.3-0.2-0.2-0.3-0.2-0.3-0.3-0.2-0.3-0.2-0.2-0.3-0.2-0.3-0.3-0.2-0.3-0.2-0.2-0.3h4l7 0.5q7 0.5 10 1l3 0.5h1l1-0.3 1-0.2-0.2-1-0.3-1-0.3-1-0.2-1 1 0.2 1 0.3h6q6 0 5.5-0.5t3-1 8.5-1l5-0.5 1-0.5 1-0.5 0.2-0.3 0.3-0.2v-2l-0.5-1-0.5-1-0.3-0.2-0.2-0.3-0.2-0.3-0.3-0.2-0.3-0.2-0.2-0.3-1-0.5q-1-0.5-5.5-1.2l-4.5-0.8v-3h22l2 12q2 12 6.5 13.8 4.5 1.7 10.5 3.2t11.5 1 22.7-10.8q17.3-10.2 17.6-11.2 0.2-1 2-2 1.7-1 2.4-7.8 0.8-6.7 19.8-16.7t22-11 4.5-1.5l1.5-0.5 0.2-0.3 0.3-0.2 0.3-0.2 0.2-0.3-0.2-0.3-0.3-0.2-0.3-0.2-0.2-0.3 0.2-0.3 0.3-0.2 0.3-0.2 0.2-0.3 0.2-0.3q0.3-0.2 0.6-0.7l0.2-0.5 1-0.2 1-0.3v-0.5l5.5-0.8q5.5-0.7 12-1z" fill="#dfe0e0" stroke="#dfe0e0"/>
  <path d="m944 492.8l3-0.8 0.2 0.5q0.3 0.5 0.8 14l0.5 13.5 0.5-11.5 0.5-11.5 0.3 0.2 0.2 0.3 3 0.5 3 0.5 0.2 0.3 0.3 0.2 0.7 3.2q0.8 3.3 2.8 4.8t36.5 6.5 41.5 5.3l7 0.2h5v0.2q0 0.3 0.5 1.6 0.5 1.2-2 3l-2.5 1.7-0.2 0.3q-0.3 0.2-1.6 0.7-1.2 0.5-1.7 2.5t-3 2.8q-2.5 0.7-1.5 1.2t-9.8 6.2q-10.7 5.8-11.7 13.3t-4 12.5-15 12-22.3 9.5l-10.2 2.5v-0.5l-2-0.5-2-0.5-1.5-0.5-1.5-0.5 0.2-0.3 0.3-0.2 0.3-0.2 0.2-0.3-1-0.3q-1-0.2-2-2.4-1-2.3-2-1.8t-4.5 1l-3.5 0.5-2-0.5-2-0.5 0.2-0.3 0.3-0.2v-2h-0.5l-0.2-0.5q-0.3-0.5-1-0.7l-0.8-0.3-0.2 0.3-0.3 0.2-0.3 0.2-0.2 0.3-1 0.5-1 0.5-1 0.5q-1 0.5-2.5 1.5l-1.5 1-0.2 0.3-0.3 0.2-0.3-0.2-0.2-0.3-1.5-0.3-1.5-0.2 0.2-40.5q0.3-40.5 6.6-44.3 6.2-3.7 9.2-4.4zm0.8 84l0.2-0.3 0.2-0.3 0.3-0.2 0.3 1q0.2 1-0.8 0.8l-1-0.3 0.2-0.3 0.3-0.2 0.3-0.2z" fill="#d3d4d4" stroke="#d3d4d4"/>
  <path d="m537.5 506.8l4.5 0.2v0.5l3 0.5 3 0.5 21 3.5q21 3.5 24.5 4l3.5 0.5 0.2 0.3 0.3 0.2v1l-0.3 0.2-0.2 0.3-1 0.5q-1 0.5-3 1.5l-2 1-0.2 0.3-0.3 0.2-0.3 0.2-0.2 0.3 2 0.5 2 0.5 12.5 1.7q12.5 1.8 12.3 23.8-0.3 22-0.6 36l-0.2 14-0.5-0.2-0.5-0.3-0.2-0.3-0.3-0.2-0.5-1-0.5-1-0.5-1.5-0.5-1.5-0.5-9.5-0.5-9.5-0.3 0.2q-0.2 0.3-1 1.6-0.7 1.2-2.4 0.4-1.8-0.7-9.3-2.2t-8.3-0.8q-0.7 0.8-1.4 1.3l-0.8 0.5-0.2-1q-0.3-1-0.8-0.5l-0.5 0.5-0.5-1q-0.5-1-2-13.5l-1.5-12.5-0.3-0.2-0.2-0.3-1-0.5-1-0.5-0.2-0.3-0.3-0.2-0.3-0.2-0.2-0.3-0.2-0.3-0.3-0.2-0.5 3.5q-0.5 3.5-3.2 2.7-2.8-0.7-11.3-3.7t-14.7 3.3q-6.3 6.2-11.6 8-5.2 1.7-8.7-0.3t-16.5-6.5l-13-4.5-1-0.5-1-0.5-0.2-0.3-0.3-0.2-0.3 0.2-0.2 0.3h-1l-0.2-0.3-0.3-0.2h-0.5l0.5-21q0.5-21 11.5-20.2 11 0.7 18 1.7t11.5 1.3z" fill="#eceded" stroke="#eceded"/>
  <path d="m1054 429.2l3-0.2v0.2q0 0.3 0.5 0.6l0.5 0.2v4l2.5 0.5q2.5 0.5 3.3 5 0.7 4.5 2.4 5.7 1.8 1.3 41.8 6.3t41 4.5 2-1l1-0.5 0.2-0.3 0.3-0.2 0.3-0.2 0.2-0.3 1-0.5 1-0.5 0.2-0.3 0.3-0.2 0.3-0.2 0.2-0.3 1-0.3 1-0.2-0.2-1-0.3-1h-0.5v-0.5l0.2-0.3 0.3-0.2 0.3-0.2 0.2-0.3 0.2-0.3 0.3-0.2 0.3 0.2 0.2 0.3 0.2 0.3 0.3 0.2 0.3 0.2 0.2 0.3 0.2 0.3 0.3 0.2v4l-0.3 0.2-0.2 0.3-0.2 0.3-0.3 0.2-0.3 0.2-0.2 0.3-0.2 0.3-0.3 0.2-0.3 0.2-0.2 0.3-0.2 0.3-0.3 0.2-0.3 0.2-0.2 0.3-0.2 0.3q-0.3 0.2-3.3 2.2t-8.3 5.5q-5.2 3.5-5.4 4.5-0.3 1-1.6 0.5-1.2-0.5-1.2 0.5t1 1 1 1-5.5 2.2q-5.5 1.3-9.3 3.6-3.7 2.2-5.2 11.7t-3.8 13.3q-2.2 3.7-10.7 9.2t-16.5 7.5-23 0.7l-15-1.2h-5v-0.5l0.2-0.3 0.3-0.2 0.3-0.2 0.2-0.3 0.2-0.3 0.3-0.2 0.3-0.2 0.2-0.3 1-0.5q1-0.5 2-1l1-0.5 0.2-0.3 0.3-0.2 0.3-0.2 0.2-0.3 0.2-0.3 0.3-0.2 0.3-1 0.2-1-1 0.2-1 0.3-1 0.5-1 0.5-0.2 0.3-0.3 0.2-0.3 0.2-0.2 0.3-1.5 0.5q-1.5 0.5-2 1t-3 1l-2.5 0.5-0.2-0.3-0.3-0.2v-39.5q0-39.5 6.3-43.3 6.2-3.7 9.2-4z" fill="#c0d1d6" stroke="#c0d1d6"/>
  <path d="m725 459.2l2-0.2 37 6.2q37 6.3 39.5 6.8l2.5 0.5 0.2 0.3 0.3 0.2v1l-0.3 0.2-0.2 0.3 0.2 0.3 0.3 0.2 0.5 1 0.5 1h0.5v0.5l-1 0.5-1 0.5-0.2 0.3-0.3 0.2-0.3 0.2-0.2 0.3-0.2 0.3-0.3 0.2-0.3 0.2-0.2 0.3v0.5l-0.5 0.2q-0.5 0.3-0.5 0.6v0.4q0 0.3-13 7-13 6.8-13.2 5.8-0.3-1-1.6 0l-1.2 1-1 0.2q-1 0.3-24 11.8t-29.2 15.8q-6.3 4.2-6.6 8.4l-0.2 4.3h-3.5q-3.5 0-4.5-0.3-1-0.2-1.2-1.2-0.3-1-4-3.8-3.8-2.7-10.3-4l-6.5-1.2v-0.2q0-0.3-12.5-2.6-12.5-2.2-12.7-10.2-0.3-8-15-10.2-14.8-2.3-25.8 3.7t-38.5 3l-27.5-3-4-0.3-4-0.2-0.5-0.2q-0.5-0.3-16-3.8l-15.5-3.5-1.5-0.5-1.5-0.5 0.2-0.3 0.3-0.2 0.3-0.2 0.2-0.3 1-0.5 1-0.5 1-0.5 1-0.5 0.2-0.3 0.3-0.2 0.3-0.2 0.2-0.3 7.5-4q7.5-4 7.5-4.3v-0.2l1-0.2 1-0.3 1-0.5 1-0.5 1-0.5 1-0.5 20.5-10q20.5-10 42-9t32-4 13.5-5.3q3-0.2 3.5-2 0.5-1.7 38.5 2.8t40 4.2zm0.2 1.6q-0.2-0.3 0-0.6l0.3-0.2v0.5q0 0.5-0.3 0.3z" fill="#e9e9ea" stroke="#e9e9ea"/>
 </g>
</svg>
